<mxfile host="65bd71144e">
    <diagram id="Uc8lJaFudNhJzdS1oXSb" name="Page-1">
        <mxGraphModel dx="819" dy="327" grid="1" gridSize="10" guides="1" tooltips="1" connect="1" arrows="1" fold="1" page="1" pageScale="1" pageWidth="850" pageHeight="1100" math="0" shadow="0">
            <root>
                <mxCell id="0"/>
                <mxCell id="1" parent="0"/>
                <mxCell id="7" value="&lt;h4&gt;Planet Object&lt;/h4&gt;name&lt;br&gt;distance_from_earth&lt;br&gt;nearest_star&lt;br&gt;&lt;br&gt;&lt;br&gt;&lt;br&gt;&lt;br&gt;" style="rounded=0;whiteSpace=wrap;html=1;fillColor=#3399FF;" vertex="1" parent="1">
                    <mxGeometry x="10" y="30" width="330" height="150" as="geometry"/>
                </mxCell>
                <mxCell id="9" value="&lt;h4&gt;Scientist Object&lt;/h4&gt;&lt;div&gt;name&lt;/div&gt;&lt;div&gt;field_of_study&lt;/div&gt;&lt;div&gt;avatar&lt;/div&gt;&lt;br&gt;&lt;br&gt;&lt;br&gt;&lt;br&gt;" style="rounded=0;whiteSpace=wrap;html=1;fillColor=#00994D;" vertex="1" parent="1">
                    <mxGeometry x="10" y="200" width="330" height="150" as="geometry"/>
                </mxCell>
                <mxCell id="6" value="" style="group" vertex="1" connectable="0" parent="1">
                    <mxGeometry x="380" y="30" width="80" height="140" as="geometry"/>
                </mxCell>
                <mxCell id="4" value="Mission&lt;br&gt;&lt;br&gt;&lt;br&gt;&lt;br&gt;&lt;br&gt;&lt;br&gt;&lt;br&gt;&lt;br&gt;&lt;br&gt;" style="rounded=0;whiteSpace=wrap;html=1;" vertex="1" parent="6">
                    <mxGeometry width="80" height="140" as="geometry"/>
                </mxCell>
                <mxCell id="3" value="Scientist" style="rounded=0;whiteSpace=wrap;html=1;fillColor=#009900;" vertex="1" parent="6">
                    <mxGeometry x="5.217391304347826" y="41.17647058823529" width="69.56521739130436" height="32.94117647058823" as="geometry"/>
                </mxCell>
                <mxCell id="5" value="Planet" style="rounded=0;whiteSpace=wrap;html=1;fillColor=#3399FF;" vertex="1" parent="6">
                    <mxGeometry x="5.217391304347826" y="90.58823529411764" width="69.56521739130436" height="32.94117647058823" as="geometry"/>
                </mxCell>
            </root>
        </mxGraphModel>
    </diagram>
</mxfile>